# xmcd CD database file
#
# Track frame offsets:
#	150
#	48617
#	75663
#	111648
#	143145
#	181826
#	204538
#	231615
#	300793
#
# Disc length: 4500 seconds
#
# Revision: 0
# Processed by: cddbd v1.5.2PL0 Copyright (c) Steve Scherf et al.
# Submitted via: CDex 1.51
#
DISCID=7a119209
DTITLE=Rory Gallagher - Slapper Boogie [CD2)
DYEAR=1976
DGENRE=Blues
TTITLE0=Going To My Home
TTITLE1=I Take What I Want
TTITLE2=Calling Card
TTITLE3=Secret Agent
TTITLE4=Do You Read Me
TTITLE5=Bought And Sold
TTITLE6=Country Mile
TTITLE7=Jackknife Beat
TTITLE8=Boogie
EXTD=YEAR: 1976
EXTT0=
EXTT1=
EXTT2=
EXTT3=
EXTT4=
EXTT5=
EXTT6=
EXTT7=
EXTT8=
PLAYORDER=
